<?xml version="1.0" encoding="iso-8859-1"?>
<!-- Generator: Adobe Illustrator 21.0.0, SVG Export Plug-In . SVG Version: 6.00 Build 0)  -->
<svg version="1.1" id="Ebene_1" xmlns="http://www.w3.org/2000/svg" xmlns:xlink="http://www.w3.org/1999/xlink" x="0px" y="0px"
	 viewBox="0 0 309.784 111.874" style="enable-background:new 0 0 309.784 111.874;" xml:space="preserve">
<g>
	<path style="fill:#8BB63A;" d="M204.052,52.393v7.086h9.922v6.379h-19.843V46.015h42.52V23.338h-56.693
		c-4.696,0-8.504,3.807-8.504,8.504v48.19c0,4.695,3.808,8.504,8.504,8.504h48.189c4.696,0,8.504-3.809,8.504-8.504V52.393H204.052z
		"/>
	<path style="fill:#8BB63A;" d="M301.28,23.338h-48.189c-4.696,0-8.505,3.808-8.505,8.504V80.03c0,4.697,3.809,8.504,8.505,8.504
		h48.189c4.697,0,8.504-3.807,8.504-8.504V31.842C309.784,27.146,305.977,23.338,301.28,23.338 M287.107,65.858h-19.843V46.015
		h19.843V65.858z"/>
	<path style="fill:#8BB63A;" d="M125.409,23.338L78.468,95.622h-8.135l10.554,16.252l34.801-16.252h-10.181l11.966-18.426h23.366
		v11.338h22.677V23.338H125.409z M124.836,65.858l16.003-24.643v24.643H124.836z"/>
	<polygon style="fill:#8BB63A;" points="26.968,88.536 46.63,58.258 46.63,88.536 73.867,88.536 120.808,16.251 128.153,16.251 
		117.6,0 82.799,16.251 93.519,16.251 69.307,53.534 69.307,23.338 42.268,23.338 22.677,53.506 22.677,23.338 0,23.338 0,88.536 	
		"/>
</g>
</svg>
